<?xml version="1.0" encoding="utf-8"?>
<!-- Generator: Adobe Illustrator 19.2.1, SVG Export Plug-In . SVG Version: 6.00 Build 0)  -->
<svg version="1.1" id="Layer_1" xmlns="http://www.w3.org/2000/svg" xmlns:xlink="http://www.w3.org/1999/xlink" x="0px" y="0px"
	 viewBox="0 0 1200 411.7" style="enable-background:new 0 0 1200 411.7;" xml:space="preserve">
<style type="text/css">
	.st0{fill:#878787;}
	.st1{fill:#27235E;}
	.st2{fill:#FF6633;}
</style>
<path class="st0" d="M711.2,309.8h34.4c5.2,0,10,0.4,14.4,1.2c4.4,0.8,8.4,1.9,11.6,4.1c3.1,1.9,6,4.4,7.9,7.6c2,3.2,2.9,7.2,2.9,12
	c0,2.4-0.5,4.4-0.8,6.8c-0.8,2.4-1.7,4.3-2.9,6.5c-1.2,1.9-3.1,3.6-5.2,5.2c-1.9,1.6-4.8,2.8-7.6,3.1v0.8c7.2,1.2,12.5,4.1,16,7.7
	s5.5,9.2,5.5,15.6c0,5.2-0.8,9.6-2.9,13.2c-1.9,3.6-4.8,6.8-8.4,9.2c-3.6,2.4-7.7,4-12.5,5.2s-9.6,1.6-15.1,1.6h-37.2V310h-0.2
	L711.2,309.8L711.2,309.8z M744.3,350.3c5.6,0,9.6-1.2,12-3.1s3.6-5.2,3.6-8.9s-1.2-6.4-4-7.9c-2.4-1.7-6.5-2.4-12-2.4h-10.8v22.8
	h11.2V350.3L744.3,350.3z M746.4,392.6c12.5,0,18.5-4.3,18.5-13.7c0-4.3-1.7-7.7-4.3-9.6c-3.2-1.9-7.7-2.8-14-2.8h-12.8v26.4h12.8
	v-0.3L746.4,392.6L746.4,392.6z"/>
<path class="st0" d="M854.6,386.3h-30.5l-6,23.6H795l31.2-100.1h27.2l31.2,100.1h-24L854.6,386.3z M850.2,368.6l-2.4-9.2
	c-1.7-5.2-2.9-10.3-4.1-16c-1.2-5.6-2.9-11.2-4.1-16.4h-0.8c-1.2,5.2-2.4,10.8-3.6,16.4c-1.2,5.5-2.9,10.8-4.1,16l-2.4,9.2H850.2z"
	/>
<path class="st0" d="M896.6,309.8h23.2l25.9,49.6l10.1,22.1h0.8c-0.5-5.2-1.2-11.2-1.7-17.6c-0.8-6.4-0.8-12.8-0.8-18.8v-35.2h21.6
	v99.9h-23.2l-26-49.9l-10-21.6H915c0.4,5.6,1.2,11.6,1.6,17.6c0.8,6.4,0.8,12.4,0.8,18.4v35.5h-21.6v-100H896.6z"/>
<path class="st0" d="M994.9,309.8h28.4c7.6,0,14.4,0.8,20.8,2.9c6,1.9,11.2,4.8,15.6,8.8c4.3,4.1,7.6,9.2,10,15.6
	c2.4,6.5,3.6,13.7,3.6,22.4c0,8.4-1.2,16-3.6,22.3c-2.4,6.4-5.5,11.5-10,15.6c-4.4,4.1-9.6,7.2-15.6,9.2s-12.8,3.2-19.9,3.2H995
	L994.9,309.8L994.9,309.8z M1021.8,391.9c4.3,0,7.9-0.4,11.6-1.7c3.6-1.2,6.4-2.8,8.8-5.5c2.4-2.4,4.3-6,5.6-10.1
	c1.2-4,1.9-9.1,1.9-15.1s-0.8-10.8-1.9-14.9c-1.2-4-3.2-7.2-5.6-9.6s-5.6-4.1-8.8-5.2c-3.6-1.2-7.2-1.7-11.6-1.7h-4.4v63.8H1021.8z"
	/>
<rect x="1088.6" y="309.8" class="st0" width="22.4" height="100.1"/>
<polygon class="st0" points="1150.1,329.1 1122.4,329.1 1122.4,309.8 1200,309.8 1200,329.1 1172.4,329.1 1172.4,409.9
	1150.1,409.9 "/>
<path class="st1" d="M53.6,409.9l-17.2-33.6H26.2v33.6H0v-99.6h37.7c5.2,0,10.3,0.4,15.2,1.6c4.8,1.2,9.1,2.9,12.8,5.2
	c3.6,2.4,6.4,5.6,8.8,10.1c2,4.1,3.2,9.2,3.2,15.6c0,7.2-1.7,13.2-4.4,17.6c-2.8,4.8-6.8,8.4-11.5,11.2l21.6,38.8H53.6V409.9z
	 M26.4,355.9H36c10.8,0,16.1-4.3,16.1-13.2c0-4.4-1.2-7.2-4.1-8.9c-2.8-1.6-6.8-2.4-12-2.4h-9.6V355.9z"/>
<polygon class="st1" points="97.7,310.3 162,310.3 162,332.3 124.1,332.3 124.1,348 157,348 157,370.3 124.1,370.3 124.1,387.8
	163.7,387.8 163.7,409.9 97.7,409.9 "/>
<path class="st1" d="M191.5,379.5c3.6,2.8,7.6,5.2,11.5,6.8c4,1.6,8,2.8,11.5,2.8c4.1,0,6.8-0.8,8.9-2c1.6-1.2,2.8-2.8,2.8-5.2
	c0-1.2-0.4-2.4-0.8-3.1c-0.8-0.8-1.6-1.7-2.8-2.4c-1.2-0.8-2.4-1.7-4.4-2c-1.6-0.8-3.6-1.6-5.5-2.4l-12.5-5.2
	c-2.8-1.2-5.2-2.4-7.6-4.1c-2.4-1.7-4.8-3.6-6.5-6c-2-2.4-3.1-4.8-4.4-7.9c-1.2-2.9-1.6-6.5-1.6-10.1c0-4.3,0.8-8.4,2.9-12
	c1.9-3.6,4.4-7.2,7.6-10.1c3.2-2.9,7.2-5.2,11.5-6.8c4.4-1.5,9.6-2.4,14.9-2.4c5.5,0,11.5,1.2,17.5,3.1s11.2,5.6,15.6,10.1L237,337
	c-3.2-2.4-6.8-4-9.6-5.2c-3.1-1.2-6.4-1.9-10.3-1.9c-3.2,0-6,0.4-7.7,1.6c-1.9,1.2-2.8,2.9-2.8,5.2s1.2,4.1,4,5.6
	c2.8,1.2,6.5,2.8,10.8,4.3l12,4.8c6.5,2.4,11.2,6,14.4,10.3c3.1,4.3,5.2,10,5.2,17.2c0,4-0.8,8.4-2.9,12c-1.6,4-4.3,7.2-7.6,10.3
	c-3.2,2.9-7.2,5.2-12,6.8c-4.8,1.7-10.4,2.9-16.4,2.9c-6.4,0-12.8-1.2-19.6-3.6c-6.8-2.4-12.8-6-18-10.8L191.5,379.5z"/>
<polygon class="st1" points="285.8,332.3 259.4,332.3 259.4,310.3 338.2,310.3 338.2,332.3 312.2,332.3 312.2,409.9 285.8,409.9 "/>
<polygon class="st1" points="352.8,310.3 379.2,310.3 379.2,387.8 416.8,387.8 416.8,409.9 352.8,409.9 "/>
<polygon class="st1" points="428,310.3 492.3,310.3 492.3,332.3 454.4,332.3 454.4,348.2 487.2,348.2 487.2,370.3 454.4,370.3
	454.4,387.8 494,387.8 494,409.9 428,409.9 "/>
<path class="st1" d="M522.2,379.5c3.6,2.8,7.7,5.2,11.6,6.8c4,1.6,7.9,2.8,11.5,2.8c4,0,6.8-0.8,8.8-2c1.7-1.2,2.9-2.8,2.9-5.2
	c0-1.2-0.5-2.4-0.8-3.1c-0.8-0.8-1.7-1.7-2.9-2.4c-1.2-0.8-2.4-1.7-4.3-2c-1.7-0.8-3.6-1.6-5.5-2.4l-12.5-5.2
	c-2.8-1.2-5.2-2.4-7.7-4.1c-2.4-1.7-4.8-3.6-6.4-6c-2-2.4-3.2-4.8-4.4-7.9c-1.2-2.9-1.6-6.5-1.6-10.1c0-4.3,0.8-8.4,2.8-12
	s4.3-7.2,7.7-10.1c3.1-2.9,7.2-5.2,11.5-6.8c4.3-1.6,9.6-2.4,14.8-2.4c5.6,0,11.6,1.2,17.6,3.1s11.2,5.6,15.6,10.1l-13.2,16.3
	c-3.2-2.4-6.8-4-9.6-5.2c-3.2-1.2-6.5-1.9-10.4-1.9c-3.1,0-6,0.4-7.6,1.6c-2,1.2-2.9,2.9-2.9,5.2s1.2,4.1,4.1,5.6
	c2.8,1.2,6.4,2.8,10.8,4.3l12,4.8c6.5,2.4,11.2,6,14.4,10.3s5.2,10,5.2,17.2c0,4-0.8,8.4-2.8,12c-1.7,4-4.3,7.2-7.7,10.3
	c-3.2,2.9-7.2,5.2-12,6.8c-4.8,1.7-10.3,2.9-16.3,2.9c-6.5,0-12.8-1.2-19.7-3.6c-6.8-2.4-12.8-6-18-10.8L522.2,379.5z"/>
<path class="st1" d="M606.2,379.5c3.6,2.8,7.7,5.2,11.6,6.8c4,1.6,7.9,2.8,11.5,2.8c4,0,6.8-0.8,8.8-2c1.7-1.2,2.9-2.8,2.9-5.2
	c0-1.2-0.5-2.4-0.8-3.1c-0.8-0.8-1.7-1.7-2.9-2.4c-1.2-0.8-2.4-1.7-4.3-2c-1.7-0.8-3.6-1.6-5.5-2.4l-12.5-5.2
	c-2.8-1.2-5.2-2.4-7.7-4.1c-2.4-1.7-4.8-3.6-6.4-6c-2-2.4-3.2-4.8-4.4-7.9c-1.2-2.9-1.6-6.5-1.6-10.1c0-4.3,0.8-8.4,2.8-12
	s4.3-7.2,7.7-10.1c3.1-2.9,7.2-5.2,11.5-6.8c4.3-1.6,9.6-2.4,14.8-2.4c5.6,0,11.6,1.2,17.6,3.1s11.2,5.6,15.6,10.1l-13.2,16.3
	c-3.2-2.4-6.8-4-9.6-5.2c-3.2-1.2-6.5-1.9-10.4-1.9c-3.1,0-6,0.4-7.6,1.6c-2,1.2-2.9,2.9-2.9,5.2s1.2,4.1,4.1,5.6
	c2.8,1.2,6.4,2.8,10.8,4.3l12,4.8c6.5,2.4,11.2,6,14.4,10.3s5.2,10,5.2,17.2c0,4-0.8,8.4-2.8,12c-1.7,4-4.3,7.2-7.7,10.3
	c-3.2,2.9-7.2,5.2-12,6.8c-4.8,1.7-10.3,2.9-16.3,2.9c-6.5,0-12.8-1.2-19.7-3.6c-6.8-2.4-12.8-6-18-10.8L606.2,379.5z"/>
<g>
	<polygon class="st2" points="689.6,32.6 348.8,174.2 513.6,193.2 757.2,41.5 	"/>
	<path class="st2" d="M799.9,143.1l66,27.6c8.9-8.8,122.4-119.5,163.9-161.2L799.9,143.1z"/>
	<polygon class="st2" points="677.2,100.8 609.2,143.1 689.6,193.2 854.4,174.2 	"/>
	<polygon class="st2" points="1026.4,2.3 835.2,1.9 705.2,26.6 932.9,56.6 	"/>
	<path class="st2" d="M403.7,143.1l-66,27.6c-8.9-8.8-122.4-119.5-164-161.2L403.7,143.1z"/>
	<polygon class="st2" points="177.1,2.3 368.4,1.9 498.4,26.6 270.8,56.6 	"/>
	<polygon class="st2" points="513.6,32.6 445.9,41.5 526.3,91.4 590.8,65 	"/>
</g>
</svg>
